<?xml version="1.0" encoding="UTF-8"?>
<svg width="158px" height="29px" viewBox="0 0 158 29" version="1.1" xmlns="http://www.w3.org/2000/svg" xmlns:xlink="http://www.w3.org/1999/xlink">
    <!-- Generator: Sketch 63.1 (92452) - https://sketch.com -->
    <title>Logo light</title>
    <desc>Created with Sketch.</desc>
    <g id="assets" stroke="none" stroke-width="1" fill="none" fill-rule="evenodd">
        <g id="Logo" transform="translate(-255.000000, -367.000000)">
            <g id="Logo-light" transform="translate(255.000000, 367.000000)">
                <g id="Original">
                    <path d="M13.8789062,28 L8.12695312,28 L8.12695312,5.66015625 L0.760742188,5.66015625 L0.760742188,0.873046875 L21.2451172,0.873046875 L21.2451172,5.66015625 L13.8789062,5.66015625 L13.8789062,28 Z M38.6123047,0.76171875 L48.2236328,28 L42.0263672,28 L40.0595703,21.5429688 L32.0318594,21.5427187 L33.4551316,16.71875 L31.6171875,16.71875 L30.1716461,21.5430603 L30.1699219,21.5429688 L28.203125,28 L22.0058594,28 L31.5800781,0.76171875 L38.6123047,0.76171875 Z M38.6865234,16.71875 C36.868155,10.8678093 35.8445649,7.55892311 35.6157227,6.79199219 C35.3868804,6.02506127 35.2229823,5.41894754 35.1240234,4.97363281 C34.7158183,6.55697406 33.5468846,10.471974 31.6171875,16.71875 L38.6865234,16.71875 Z M74.1445312,14.1767578 C74.1445312,18.6422749 72.8735479,22.0624881 70.331543,24.4375 C67.7895381,26.8125119 64.1188391,28 59.3193359,28 L51.6376953,28 L51.6376953,0.873046875 L60.1542969,0.873046875 C64.5827044,0.873046875 68.0214721,2.0419805 70.4707031,4.37988281 C72.9199341,6.71778513 74.1445312,9.98337747 74.1445312,14.1767578 Z M68.1699219,14.3251953 C68.1699219,8.49899431 65.5970309,5.5859375 60.4511719,5.5859375 L57.3896484,5.5859375 L57.3896484,23.25 L59.8574219,23.25 C65.3991162,23.25 68.1699219,20.2750949 68.1699219,14.3251953 Z M104.388672,14.3994141 C104.388672,18.8896709 103.275402,22.3408083 101.048828,24.7529297 C98.8222545,27.1650511 95.6308802,28.3710938 91.4746094,28.3710938 C87.3183386,28.3710938 84.1269643,27.1650511 81.9003906,24.7529297 C79.673817,22.3408083 78.5605469,18.8773012 78.5605469,14.3623047 C78.5605469,9.84730815 79.6769094,6.39926321 81.909668,4.01806641 C84.1424265,1.6368696 87.3430781,0.446289062 91.5117188,0.446289062 C95.6803594,0.446289062 98.8686413,1.64614686 101.07666,4.04589844 C103.284679,6.44565002 104.388672,9.89678738 104.388672,14.3994141 Z M84.5908203,14.3994141 C84.5908203,17.4300282 85.1660099,19.7122319 86.3164062,21.2460938 C87.4668026,22.7799556 89.1861865,23.546875 91.4746094,23.546875 C96.063825,23.546875 98.3583984,20.4977518 98.3583984,14.3994141 C98.3583984,8.28870643 96.0761947,5.23339844 91.5117188,5.23339844 C89.2232958,5.23339844 87.4977272,6.00341027 86.3349609,7.54345703 C85.1721947,9.08350379 84.5908203,11.3688 84.5908203,14.3994141 Z M115.762695,21.3230794 L115.762695,28 L110.010742,28 L110.010742,0.873046875 L115.762695,0.873046875 L115.762695,13.2861328 L118.026367,10.0947266 L125.374023,0.873046875 L131.756836,0.873046875 L115.762695,21.3230794 Z M157.325195,0.873046875 L157.325195,18.4257812 C157.325195,20.4296975 156.876795,22.1861904 155.97998,23.6953125 C155.083166,25.2044346 153.787443,26.3609986 152.092773,27.1650391 C150.398104,27.9690795 148.394217,28.3710938 146.081055,28.3710938 C142.592756,28.3710938 139.883799,27.4773852 137.954102,25.6899414 C136.024404,23.9024976 135.05957,21.4563957 135.05957,18.3515625 L135.05957,0.873046875 L140.792969,0.873046875 L140.792969,17.4794922 C140.792969,19.5699974 141.213537,21.1038363 142.054688,22.0810547 C142.895838,23.0582731 144.287425,23.546875 146.229492,23.546875 C148.10971,23.546875 149.473466,23.0551807 150.320801,22.0717773 C151.168136,21.088374 151.591797,19.5452579 151.591797,17.4423828 L151.591797,0.873046875 L157.325195,0.873046875 Z" id="Logo" fill="#F1F1F1"></path>
                    <polygon id="Path-2-Copy" fill="#6969FF" points="131.853697 28.0167614 125.29276 28.0167614 118.760559 17.4854584 125.195374 17.4854584"></polygon>
                </g>
            </g>
        </g>
    </g>
</svg>